<svg width="757" height="555" viewBox="0 0 757 555" fill="none" xmlns="http://www.w3.org/2000/svg">
<rect width="757" height="555" fill="white"/>
<g clip-path="url(#clip0)">
<g style="mix-blend-mode:darken" opacity="0.35">
<path d="M662 457.173L631.83 431.52L559.34 369.883L531.073 345.847C515.158 332.316 507.102 312.104 509.507 291.741L516.254 234.595C519.205 209.616 515.203 184.327 504.665 161.344L452.027 46.5383C448.578 39.0167 436.957 41.3962 436.957 49.6257V316.284C436.957 339.089 445.218 361.173 460.305 378.697L497.015 421.34L558.685 492.973L588.534 528L662 457.173Z" fill="#EFBBAB"/>
</g>
<g style="mix-blend-mode:darken" opacity="0.35">
<path d="M99 457.171L129.17 431.518L201.66 369.881L229.927 345.845C245.842 332.314 253.898 312.102 251.493 291.739L244.746 234.593C241.795 209.614 245.797 184.325 256.335 161.342L308.83 46.5383C312.279 39.0167 323.756 41.3962 323.756 49.6257V316.284C323.756 339.089 315.638 361.173 300.552 378.697L263.913 421.34L202.314 492.973L172.172 527.984L99 457.171Z" fill="#EFBBAB"/>
</g>
<path d="M231.942 462.942L161.183 392.184C152.22 383.221 152.22 368.686 161.183 359.723C170.146 350.76 184.681 350.76 193.644 359.723L264.403 430.482C273.366 439.445 273.366 453.98 264.403 462.943C255.438 471.906 240.905 471.906 231.942 462.942Z" fill="#FFDB6C"/>
<path d="M264.403 430.481L234.047 400.124C243.01 409.087 243.01 423.622 234.047 432.585C225.084 441.548 210.549 441.548 201.586 432.585L231.942 462.941C240.905 471.904 255.44 471.904 264.403 462.941C273.366 453.979 273.366 439.444 264.403 430.481Z" fill="#FFB04C"/>
<path d="M199.481 495.403L128.722 424.644C119.759 415.681 119.759 401.146 128.722 392.183C137.685 383.22 152.22 383.22 161.183 392.183L231.942 462.942C240.905 471.905 240.905 486.44 231.942 495.403C222.977 504.368 208.444 504.368 199.481 495.403Z" fill="#FFDB6C"/>
<path d="M231.942 462.942L201.586 432.586C210.549 441.549 210.549 456.084 201.586 465.047C192.623 474.01 178.088 474.01 169.125 465.047L199.481 495.403C208.444 504.366 222.979 504.366 231.942 495.403C240.905 486.44 240.905 471.906 231.942 462.942Z" fill="#FFB04C"/>
<path d="M524.185 462.942L594.944 392.183C603.907 383.22 603.907 368.685 594.944 359.722C585.981 350.759 571.446 350.759 562.483 359.722L491.724 430.481C482.761 439.444 482.761 453.979 491.724 462.942C500.688 471.906 515.222 471.906 524.185 462.942Z" fill="#FFDB6C"/>
<path d="M491.724 430.481L522.081 400.124C513.118 409.087 513.118 423.622 522.081 432.585C531.044 441.548 545.579 441.548 554.542 432.585L524.186 462.941C515.223 471.904 500.688 471.904 491.725 462.941C482.759 453.979 482.759 439.444 491.724 430.481Z" fill="#FFB04C"/>
<path d="M556.647 495.403L627.406 424.644C636.369 415.681 636.369 401.146 627.406 392.183C618.443 383.22 603.908 383.22 594.945 392.183L524.186 462.942C515.223 471.905 515.223 486.44 524.186 495.403C533.149 504.368 547.683 504.368 556.647 495.403Z" fill="#FFDB6C"/>
<path d="M524.185 462.942L554.541 432.586C545.578 441.549 545.578 456.084 554.541 465.047C563.504 474.01 578.039 474.01 587.002 465.047L556.646 495.403C547.683 504.366 533.148 504.366 524.185 495.403C515.222 486.44 515.222 471.906 524.185 462.942Z" fill="#FFB04C"/>
</g>
<defs>
<clipPath id="clip0">
<rect width="512.002" height="512.002" fill="white" transform="translate(122 16)"/>
</clipPath>
</defs>
</svg>
